<svg width="320" height="44" viewBox="0 0 320 44" fill="none" xmlns="http://www.w3.org/2000/svg">
<rect width="116" height="44" rx="4" fill="#FFCA2C"/>
<path d="M23.2506 31.5V14.98H16.7546V11.9H33.3866V14.98H26.8906V31.5H23.2506ZM45.0289 31.78C43.4982 31.78 42.0889 31.528 40.8009 31.024C39.5129 30.52 38.3929 29.82 37.4409 28.924C36.4889 28.0093 35.7516 26.9453 35.2289 25.732C34.7062 24.5 34.4449 23.156 34.4449 21.7C34.4449 20.244 34.7062 18.9093 35.2289 17.696C35.7516 16.464 36.4889 15.4 37.4409 14.504C38.3929 13.5893 39.5129 12.88 40.8009 12.376C42.0889 11.872 43.4889 11.62 45.0009 11.62C46.5316 11.62 47.9316 11.872 49.2009 12.376C50.4889 12.88 51.6089 13.5893 52.5609 14.504C53.5129 15.4 54.2502 16.464 54.7729 17.696C55.2956 18.9093 55.5569 20.244 55.5569 21.7C55.5569 23.156 55.2956 24.5 54.7729 25.732C54.2502 26.964 53.5129 28.028 52.5609 28.924C51.6089 29.82 50.4889 30.52 49.2009 31.024C47.9316 31.528 46.5409 31.78 45.0289 31.78ZM45.0009 28.588C45.9902 28.588 46.9049 28.42 47.7449 28.084C48.5849 27.748 49.3129 27.272 49.9289 26.656C50.5449 26.0213 51.0209 25.2933 51.3569 24.472C51.7116 23.632 51.8889 22.708 51.8889 21.7C51.8889 20.692 51.7116 19.7773 51.3569 18.956C51.0209 18.116 50.5449 17.388 49.9289 16.772C49.3129 16.1373 48.5849 15.652 47.7449 15.316C46.9049 14.98 45.9902 14.812 45.0009 14.812C44.0116 14.812 43.0969 14.98 42.2569 15.316C41.4356 15.652 40.7076 16.1373 40.0729 16.772C39.4569 17.388 38.9716 18.116 38.6169 18.956C38.2809 19.7773 38.1129 20.692 38.1129 21.7C38.1129 22.6893 38.2809 23.604 38.6169 24.444C38.9716 25.284 39.4569 26.0213 40.0729 26.656C40.6889 27.272 41.4169 27.748 42.2569 28.084C43.0969 28.42 44.0116 28.588 45.0009 28.588ZM67.8432 31.78C65.1552 31.78 63.0459 31.024 61.5152 29.512C60.0032 28 59.2472 25.816 59.2472 22.96V11.9H62.8872V22.82C62.8872 24.836 63.3165 26.3013 64.1752 27.216C65.0525 28.1307 66.2845 28.588 67.8712 28.588C69.4579 28.588 70.6805 28.1307 71.5392 27.216C72.3979 26.3013 72.8272 24.836 72.8272 22.82V11.9H76.4112V22.96C76.4112 25.816 75.6459 28 74.1152 29.512C72.6032 31.024 70.5125 31.78 67.8432 31.78ZM81.509 31.5V11.9H89.573C91.309 11.9 92.793 12.18 94.025 12.74C95.2756 13.3 96.237 14.1027 96.909 15.148C97.581 16.1933 97.917 17.4347 97.917 18.872C97.917 20.3093 97.581 21.5507 96.909 22.596C96.237 23.6227 95.2756 24.416 94.025 24.976C92.793 25.5173 91.309 25.788 89.573 25.788H83.525L85.149 24.136V31.5H81.509ZM94.333 31.5L89.377 24.388H93.269L98.253 31.5H94.333ZM85.149 24.528L83.525 22.792H89.405C91.0103 22.792 92.2143 22.4467 93.017 21.756C93.8383 21.0653 94.249 20.104 94.249 18.872C94.249 17.6213 93.8383 16.66 93.017 15.988C92.2143 15.316 91.0103 14.98 89.405 14.98H83.525L85.149 13.188V24.528Z" fill="black"/>
<path d="M144.06 32.28C141.372 32.28 139.263 31.524 137.732 30.012C136.22 28.5 135.464 26.316 135.464 23.46V12.4H139.104V23.32C139.104 25.336 139.533 26.8013 140.392 27.716C141.269 28.6307 142.501 29.088 144.088 29.088C145.675 29.088 146.897 28.6307 147.756 27.716C148.615 26.8013 149.044 25.336 149.044 23.32V12.4H152.628V23.46C152.628 26.316 151.863 28.5 150.332 30.012C148.82 31.524 146.729 32.28 144.06 32.28ZM156.242 32V29.564L168.898 14.108L169.318 15.48H156.438V12.4H172.594V14.836L159.938 30.292L159.49 28.92H172.958V32H156.242ZM176.292 32V12.4H185.476C187.828 12.4 189.62 12.8667 190.852 13.8C192.084 14.7147 192.7 15.9467 192.7 17.496C192.7 18.5413 192.457 19.4373 191.972 20.184C191.487 20.912 190.833 21.4813 190.012 21.892C189.209 22.284 188.332 22.48 187.38 22.48L187.884 21.472C188.985 21.472 189.975 21.6773 190.852 22.088C191.729 22.48 192.42 23.0587 192.924 23.824C193.447 24.5893 193.708 25.5413 193.708 26.68C193.708 28.36 193.064 29.6667 191.776 30.6C190.488 31.5333 188.575 32 186.036 32H176.292ZM179.932 29.144H185.812C187.175 29.144 188.22 28.92 188.948 28.472C189.676 28.024 190.04 27.3053 190.04 26.316C190.04 25.3453 189.676 24.636 188.948 24.188C188.22 23.7213 187.175 23.488 185.812 23.488H179.652V20.66H185.084C186.353 20.66 187.324 20.436 187.996 19.988C188.687 19.54 189.032 18.868 189.032 17.972C189.032 17.0573 188.687 16.376 187.996 15.928C187.324 15.48 186.353 15.256 185.084 15.256H179.932V29.144ZM200.953 20.548H210.697V23.544H200.953V20.548ZM201.233 28.948H212.293V32H197.593V12.4H211.901V15.452H201.233V28.948ZM219.599 27.38L219.403 23.068L229.679 12.4H233.767L225.227 21.472L223.211 23.684L219.599 27.38ZM216.351 32V12.4H219.991V32H216.351ZM230.015 32L222.511 23.068L224.919 20.408L234.271 32H230.015ZM236.749 32V12.4H240.389V32H236.749ZM251.767 32.28C250.236 32.28 248.771 32.0653 247.371 31.636C245.971 31.188 244.86 30.6187 244.039 29.928L245.299 27.1C246.083 27.716 247.053 28.2293 248.211 28.64C249.368 29.0507 250.553 29.256 251.767 29.256C252.793 29.256 253.624 29.144 254.259 28.92C254.893 28.696 255.36 28.3973 255.659 28.024C255.957 27.632 256.107 27.1933 256.107 26.708C256.107 26.1107 255.892 25.6347 255.463 25.28C255.033 24.9067 254.473 24.6173 253.783 24.412C253.111 24.188 252.355 23.9827 251.515 23.796C250.693 23.6093 249.863 23.3947 249.023 23.152C248.201 22.8907 247.445 22.564 246.755 22.172C246.083 21.7613 245.532 21.22 245.103 20.548C244.673 19.876 244.459 19.0173 244.459 17.972C244.459 16.908 244.739 15.9373 245.299 15.06C245.877 14.164 246.745 13.4547 247.903 12.932C249.079 12.3907 250.563 12.12 252.355 12.12C253.531 12.12 254.697 12.2693 255.855 12.568C257.012 12.8667 258.02 13.296 258.879 13.856L257.731 16.684C256.853 16.1613 255.948 15.7787 255.015 15.536C254.081 15.2747 253.185 15.144 252.327 15.144C251.319 15.144 250.497 15.2653 249.863 15.508C249.247 15.7507 248.789 16.068 248.491 16.46C248.211 16.852 248.071 17.3 248.071 17.804C248.071 18.4013 248.276 18.8867 248.687 19.26C249.116 19.6147 249.667 19.8947 250.339 20.1C251.029 20.3053 251.795 20.5107 252.635 20.716C253.475 20.9027 254.305 21.1173 255.127 21.36C255.967 21.6027 256.723 21.92 257.395 22.312C258.085 22.704 258.636 23.236 259.047 23.908C259.476 24.58 259.691 25.4293 259.691 26.456C259.691 27.5013 259.401 28.472 258.823 29.368C258.263 30.2453 257.395 30.9547 256.219 31.496C255.043 32.0187 253.559 32.28 251.767 32.28ZM267.003 32V15.48H260.507V12.4H277.139V15.48H270.643V32H267.003ZM276.114 32L284.934 12.4H288.518L297.366 32H293.558L285.97 14.332H287.426L279.866 32H276.114ZM280.174 27.464L281.154 24.608H291.738L292.718 27.464H280.174ZM299.859 32V12.4H302.855L315.147 27.492H313.663V12.4H317.275V32H314.279L301.987 16.908H303.471V32H299.859Z" fill="white"/>
</svg>
